<svg id="图层_1" data-name="图层 1" xmlns="http://www.w3.org/2000/svg" viewBox="0 0 173.76 173.76"><defs><style>.cls-1{fill:#020000;fill-rule:evenodd;}</style></defs><path class="cls-1" d="M104.36,163l47.26-43.74.18-69.5c-.92-5.4-2.87-6.54-6.43-8.6L124.55,29.92a10.43,10.43,0,0,0-10.94.85L56.71,72.18C47.43,75.61,32,66.62,43.45,58.39L98.06,19c1.52-1.45,3.68-2.38-.4-4.62-2.86-1.29-5.43-2.55-8.18-4C87,9,86,9.9,84.48,10.86L34.84,44.74C28.31,49,24.54,51.86,24.09,58.46l.85,73c.08,9.66,2.78,10.52,8,12.41l23.57,7.17c10.2,2.83,12.8-2.94,12.8-10L69.05,83c.84-5,3.46-7,6.78-9.49l40.44-31.79c7.91-5.89,25.4,4.65,19.1,11L100.09,80.33c-4.64,4.38-7,7.93-6.9,12.84l.58,66.76C93.38,166.58,102.13,165.53,104.36,163Z"/></svg>